# xmcd
#
# Track frame offsets:
#	150
#	14518
#	26589
#	48348
#	67212
#	86274
#	104088
#	123082
#	137703
#	159713
#	177149
#	194446
#	206907
#	221416
#	238165
#	268701
#
# Disc length: 3588 seconds
#
# Revision: 1
# Processed by: cddbd v1.5.1PL2 Copyright (c) Steve Scherf et al.
# Submitted via: audiograbber 1.83.01
#
DISCID=ee0e0210
DTITLE=Various Artist - BK0401
DYEAR=1900
DGENRE=Karaoke
TTITLE0=Jackson, Alan - When Somebody Loves You
TTITLE1=Jackson, Alan - WWW.Memory
TTITLE2=Paisley, Brad - He Didn't Have To Be
TTITLE3=Paisley, Brad - Two People Fell In Love
TTITLE4=Johnson, Carol Dawn - Georgia
TTITLE5=Cagle, Chris - Laredo
TTITLE6=Black, Clint - When I Said I Do
TTITLE7=Thomson, Cyndi - I Always Like That Best
TTITLE8=Dixie Chicks - Cowboy Take Me Away
TTITLE9=Dixie Chicks - Ready To Run
TTITLE10=Dixie Chicks - Wide Open Spaces
TTITLE11=Parton, Dolly - I Will Always Love You
TTITLE12=Hill, Faith - Way You Love Me
TTITLE13=Hill, Faith - There You'll Be
TTITLE14=Hill, Faith and Tim McGraw - Let's Make Love
TTITLE15=Data - Data Track
EXTD=
EXTT0=
EXTT1=
EXTT2=
EXTT3=
EXTT4=
EXTT5=
EXTT6=
EXTT7=
EXTT8=
EXTT9=
EXTT10=
EXTT11=
EXTT12=
EXTT13=
EXTT14=
EXTT15=
PLAYORDER=
